<svg width="120" height="120" viewBox="0 0 120 120" fill="none" xmlns="http://www.w3.org/2000/svg">
  <!-- Background Circle -->
  <circle cx="60" cy="60" r="58" fill="#FF6B6B" stroke="#FF5252" stroke-width="4"/>
  
  <!-- Chef Hat -->
  <path d="M35 45 C35 35, 45 30, 60 30 C75 30, 85 35, 85 45 C85 40, 80 35, 75 35 C70 30, 65 32, 60 32 C55 32, 50 30, 45 35 C40 35, 35 40, 35 45 Z" fill="white"/>
  <rect x="38" y="45" width="44" height="8" fill="white" rx="2"/>
  
  <!-- Robot Face Base -->
  <rect x="42" y="55" width="36" height="32" fill="#4ECDC4" rx="8" stroke="#26A69A" stroke-width="2"/>
  
  <!-- Eyes -->
  <circle cx="50" cy="65" r="4" fill="#2E7D32"/>
  <circle cx="70" cy="65" r="4" fill="#2E7D32"/>
  <circle cx="50" cy="65" r="2" fill="#4CAF50"/>
  <circle cx="70" cy="65" r="2" fill="#4CAF50"/>
  
  <!-- Mouth/Display -->
  <rect x="47" y="75" width="26" height="6" fill="#2E7D32" rx="3"/>
  <rect x="49" y="77" width="4" height="2" fill="#4CAF50"/>
  <rect x="55" y="77" width="4" height="2" fill="#4CAF50"/>
  <rect x="61" y="77" width="4" height="2" fill="#4CAF50"/>
  <rect x="67" y="77" width="4" height="2" fill="#4CAF50"/>
  
  <!-- Cooking Utensils -->
  <!-- Spatula -->
  <rect x="25" y="70" width="3" height="20" fill="#8D6E63" rx="1"/>
  <ellipse cx="26.5" cy="68" rx="3" ry="4" fill="#FFB74D"/>
  
  <!-- Whisk -->
  <rect x="91" y="70" width="2" height="18" fill="#8D6E63"/>
  <circle cx="92" cy="68" r="3" fill="#E0E0E0" stroke="#BDBDBD" stroke-width="1"/>
  <line x1="90" y1="66" x2="90" y2="70" stroke="#BDBDBD" stroke-width="0.5"/>
  <line x1="92" y1="65" x2="92" y2="71" stroke="#BDBDBD" stroke-width="0.5"/>
  <line x1="94" y1="66" x2="94" y2="70" stroke="#BDBDBD" stroke-width="0.5"/>
  
  <!-- Recipe Elements -->
  <!-- Steam lines -->
  <path d="M45 25 Q47 20, 45 15" stroke="#E0E0E0" stroke-width="2" fill="none" stroke-linecap="round"/>
  <path d="M55 25 Q57 20, 55 15" stroke="#E0E0E0" stroke-width="2" fill="none" stroke-linecap="round"/>
  <path d="M65 25 Q67 20, 65 15" stroke="#E0E0E0" stroke-width="2" fill="none" stroke-linecap="round"/>
  <path d="M75 25 Q77 20, 75 15" stroke="#E0E0E0" stroke-width="2" fill="none" stroke-linecap="round"/>
  
  <!-- Recipe Book -->
  <rect x="15" y="95" width="20" height="15" fill="#FF9800" rx="2"/>
  <rect x="17" y="97" width="16" height="11" fill="#FFF3E0" rx="1"/>
  <line x1="19" y1="100" x2="31" y2="100" stroke="#FF9800" stroke-width="1"/>
  <line x1="19" y1="103" x2="29" y2="103" stroke="#FF9800" stroke-width="1"/>
  <line x1="19" y1="106" x2="31" y2="106" stroke="#FF9800" stroke-width="1"/>
  
  <!-- Ingredients -->
  <circle cx="90" cy="100" r="8" fill="#4CAF50"/>
  <circle cx="88" cy="98" r="2" fill="#2E7D32"/>
  <circle cx="92" cy="98" r="2" fill="#2E7D32"/>
  <path d="M85 102 Q90 105, 95 102" stroke="#2E7D32" stroke-width="1.5" fill="none"/>
</svg>
