<svg width="120" height="120" viewBox="0 0 120 120" fill="none" xmlns="http://www.w3.org/2000/svg">
  <defs>
    <radialGradient id="bgGradient" cx="0.3" cy="0.3" r="0.8">
      <stop offset="0%" stop-color="#fefaec"/>
      <stop offset="100%" stop-color="#f6d073"/>
    </radialGradient>
  </defs>
  
  <!-- Background Circle -->
  <circle cx="60" cy="60" r="56" fill="url(#bgGradient)" stroke="#e8c545" stroke-width="3"/>
  
  <!-- Main pot and spoon silhouette -->
  <g fill="#685142" stroke="none">
    <!-- Main pot body - centered -->
    <path d="M32 55 L32 80 Q32 92, 42 95 L78 95 Q88 92, 88 80 L88 55 Z"/>
    
    <!-- Pot rim/top -->
    <ellipse cx="60" cy="55" rx="28" ry="3"/>
    
    <!-- Left handle -->
    <path d="M26 62 Q21 62, 21 67 Q21 72, 26 72 L32 70 L32 64 Z"/>
    
    <!-- Right handle -->
    <path d="M94 62 Q99 62, 99 67 Q99 72, 94 72 L88 70 L88 64 Z"/>
    
    <!-- Cooking spoon -->
    <ellipse cx="72" cy="52" rx="8" ry="3" transform="rotate(15 72 52)"/>
    <rect x="76" y="35" width="3" height="20" transform="rotate(15 76 35)"/>
    
    <!-- Pot interior -->
    <ellipse cx="60" cy="56" rx="24" ry="2" fill="#544539"/>
  </g>
  
  <!-- Subtle pot body highlight -->
  <ellipse cx="50" cy="70" rx="10" ry="15" fill="#9a7558" opacity="0.2"/>
</svg>